<?xml version="1.0" standalone="no"?>
<svg xmlns="http://www.w3.org/2000/svg" xmlns:xlink="http://www.w3.org/1999/xlink" width="472pt" height="1070pt" viewBox="0.00 0.00 471.77 1070.00">
<g id="graph0" class="graph" transform="translate(4,1066) scale(1)" data-name="Memory">

<polygon fill="white" stroke="none" points="-4,4 -4,-1066 467.77,-1066 467.77,4 -4,4"/>
<!-- addr_0x00404004 -->
<g id="node1" class="node" pointer-events="visible" data-name="addr_0x00404004">

<polygon fill="none" stroke="black" points="121.71,-36 3.96,-36 3.96,0 121.71,0 121.71,-36"/>
<text text-anchor="middle" x="62.83" y="-13.8" font-family="Times,serif" font-size="14.00">addr_0x00404004</text>
</g>
<!-- addr_0xEF1E56C6 -->
<g id="node2" class="node" pointer-events="visible" data-name="addr_0xEF1E56C6">

<polygon fill="none" stroke="black" points="286.98,-36 162.78,-36 162.78,0 286.98,0 286.98,-36"/>
<text text-anchor="middle" x="224.88" y="-13.8" font-family="Times,serif" font-size="14.00">addr_0xEF1E56C6</text>
</g>
<!-- addr_0x00404004&#45;&gt;addr_0xEF1E56C6 -->
<g id="edge1" class="edge" data-name="addr_0x00404004-&gt;addr_0xEF1E56C6">

<path fill="none" stroke="black" d="M122.06,-18C131.51,-18 141.39,-18 151.13,-18"/>
<polygon fill="black" stroke="black" points="150.94,-21.5 160.94,-18 150.94,-14.5 150.94,-21.5"/>
</g>
<!-- addr_0x0019FF18 -->
<g id="node3" class="node" pointer-events="visible" data-name="addr_0x0019FF18">

<polygon fill="none" stroke="black" points="122.78,-117 2.88,-117 2.88,-81 122.78,-81 122.78,-117"/>
<text text-anchor="middle" x="62.83" y="-94.8" font-family="Times,serif" font-size="14.00">addr_0x0019FF18</text>
</g>
<!-- addr_0x767BD748 -->
<g id="node4" class="node" pointer-events="visible" data-name="addr_0x767BD748">

<polygon fill="none" stroke="black" points="286.7,-157 163.05,-157 163.05,-121 286.7,-121 286.7,-157"/>
<text text-anchor="middle" x="224.88" y="-134.8" font-family="Times,serif" font-size="14.00">addr_0x767BD748</text>
</g>
<!-- addr_0x0019FF18&#45;&gt;addr_0x767BD748 -->
<g id="edge2" class="edge" data-name="addr_0x0019FF18-&gt;addr_0x767BD748">

<path fill="none" stroke="black" d="M122.97,-113.78C132.25,-116.1 141.94,-118.52 151.47,-120.9"/>
<polygon fill="black" stroke="black" points="150.55,-124.28 161.1,-123.31 152.25,-117.49 150.55,-124.28"/>
</g>
<!-- addr_0xEF07A9EE -->
<g id="node5" class="node" pointer-events="visible" data-name="addr_0xEF07A9EE">

<polygon fill="none" stroke="black" points="288.31,-103 161.45,-103 161.45,-67 288.31,-67 288.31,-103"/>
<text text-anchor="middle" x="224.88" y="-80.8" font-family="Times,serif" font-size="14.00">addr_0xEF07A9EE</text>
</g>
<!-- addr_0x0019FF18&#45;&gt;addr_0xEF07A9EE -->
<g id="edge3" class="edge" data-name="addr_0x0019FF18-&gt;addr_0xEF07A9EE">

<path fill="none" stroke="black" d="M122.97,-93.83C131.68,-93.07 140.73,-92.27 149.69,-91.49"/>
<polygon fill="black" stroke="black" points="149.79,-94.99 159.45,-90.64 149.18,-88.02 149.79,-94.99"/>
</g>
<!-- addr_0x0019FF1C -->
<g id="node6" class="node" pointer-events="visible" data-name="addr_0x0019FF1C">

<polygon fill="none" stroke="black" points="123.62,-211 2.04,-211 2.04,-175 123.62,-175 123.62,-211"/>
<text text-anchor="middle" x="62.83" y="-188.8" font-family="Times,serif" font-size="14.00">addr_0x0019FF1C</text>
</g>
<!-- addr_0x0019FF60 -->
<g id="node7" class="node" pointer-events="visible" data-name="addr_0x0019FF60">

<polygon fill="none" stroke="black" points="284.83,-211 164.93,-211 164.93,-175 284.83,-175 284.83,-211"/>
<text text-anchor="middle" x="224.88" y="-188.8" font-family="Times,serif" font-size="14.00">addr_0x0019FF60</text>
</g>
<!-- addr_0x0019FF1C&#45;&gt;addr_0x0019FF60 -->
<g id="edge4" class="edge" data-name="addr_0x0019FF1C-&gt;addr_0x0019FF60">

<path fill="none" stroke="black" d="M123.88,-193C133.45,-193 143.41,-193 153.2,-193"/>
<polygon fill="black" stroke="black" points="153.04,-196.5 163.04,-193 153.04,-189.5 153.04,-196.5"/>
</g>
<!-- addr_0x00698FB8 -->
<g id="node8" class="node" pointer-events="visible" data-name="addr_0x00698FB8">

<polygon fill="none" stroke="black" points="285.38,-881 164.38,-881 164.38,-845 285.38,-845 285.38,-881"/>
<text text-anchor="middle" x="224.88" y="-858.8" font-family="Times,serif" font-size="14.00">addr_0x00698FB8</text>
</g>
<!-- addr_0xBAADF00D -->
<g id="node9" class="node" pointer-events="visible" data-name="addr_0xBAADF00D">

<polygon fill="none" stroke="black" points="460.87,-774 326.99,-774 326.99,-738 460.87,-738 460.87,-774"/>
<text text-anchor="middle" x="393.93" y="-751.8" font-family="Times,serif" font-size="14.00">addr_0xBAADF00D</text>
</g>
<!-- addr_0x00698FB8&#45;&gt;addr_0xBAADF00D -->
<g id="edge5" class="edge" data-name="addr_0x00698FB8-&gt;addr_0xBAADF00D">

<path fill="none" stroke="black" d="M263.87,-844.58C271.99,-840.33 280.42,-835.68 288.1,-831 313.16,-815.7 340.07,-796.38 360.36,-781.18"/>
<polygon fill="black" stroke="black" points="362.38,-784.04 368.25,-775.21 358.16,-778.45 362.38,-784.04"/>
</g>
<!-- addr_0x00000123 -->
<g id="node10" class="node" pointer-events="visible" data-name="value_0x123" data-comment="addr_0x00000123">

<polygon fill="none" stroke="black" points="438.25,-881 349.61,-881 349.61,-845 438.25,-845 438.25,-881"/>
<text text-anchor="middle" x="393.93" y="-858.8" font-family="Times,serif" font-size="14.00">value_0x123</text>
</g>
<!-- addr_0x00698FB8&#45;&gt;addr_0x00000123 -->
<g id="edge6" class="edge" data-name="addr_0x00698FB8-&gt;value_0x123" data-comment="addr_0x00698FB8-&gt;addr_0x00000123">

<path fill="none" stroke="black" d="M285.72,-863C302.76,-863 321.23,-863 337.96,-863"/>
<polygon fill="black" stroke="black" points="337.72,-866.5 347.72,-863 337.72,-859.5 337.72,-866.5"/>
</g>
<!-- addr_0x0019FF04 -->
<g id="node11" class="node" pointer-events="visible" data-name="addr_0x0019FF04">

<polygon fill="none" stroke="black" points="122.78,-974 2.88,-974 2.88,-938 122.78,-938 122.78,-974"/>
<text text-anchor="middle" x="62.83" y="-951.8" font-family="Times,serif" font-size="14.00">addr_0x0019FF04</text>
</g>
<!-- addr_0x767C8DD6 -->
<g id="node12" class="node" pointer-events="visible" data-name="addr_0x767C8DD6">

<polygon fill="none" stroke="black" points="288.31,-1008 161.44,-1008 161.44,-972 288.31,-972 288.31,-1008"/>
<text text-anchor="middle" x="224.88" y="-985.8" font-family="Times,serif" font-size="14.00">addr_0x767C8DD6</text>
</g>
<!-- addr_0x0019FF04&#45;&gt;addr_0x767C8DD6 -->
<g id="edge7" class="edge" data-name="addr_0x0019FF04-&gt;addr_0x767C8DD6">

<path fill="none" stroke="black" d="M122.97,-968.56C131.68,-970.41 140.73,-972.34 149.69,-974.24"/>
<polygon fill="black" stroke="black" points="148.96,-977.66 159.47,-976.32 150.42,-970.82 148.96,-977.66"/>
</g>
<!-- addr_0x00000456 -->
<g id="node13" class="node" pointer-events="visible" data-name="value_0x456" data-comment="addr_0x00000456">

<polygon fill="none" stroke="black" points="269.2,-954 180.56,-954 180.56,-918 269.2,-918 269.2,-954"/>
<text text-anchor="middle" x="224.88" y="-931.8" font-family="Times,serif" font-size="14.00">value_0x456</text>
</g>
<!-- addr_0x0019FF04&#45;&gt;addr_0x00000456 -->
<g id="edge8" class="edge" data-name="addr_0x0019FF04-&gt;value_0x456" data-comment="addr_0x0019FF04-&gt;addr_0x00000456">

<path fill="none" stroke="black" d="M122.97,-948.61C138.16,-946.71 154.42,-944.68 169.36,-942.81"/>
<polygon fill="black" stroke="black" points="169.5,-946.32 178.99,-941.61 168.63,-939.38 169.5,-946.32"/>
</g>
<!-- addr_0x00695574 -->
<g id="node14" class="node" pointer-events="visible" data-name="addr_0x00695574">

<polygon fill="none" stroke="black" points="121.71,-851 3.96,-851 3.96,-815 121.71,-815 121.71,-851"/>
<text text-anchor="middle" x="62.83" y="-828.8" font-family="Times,serif" font-size="14.00">addr_0x00695574</text>
</g>
<!-- addr_0x00695574&#45;&gt;addr_0x00698FB8 -->
<g id="edge10" class="edge" data-name="addr_0x00695574-&gt;addr_0x00698FB8">

<path fill="none" stroke="black" d="M122.06,-843.92C132.11,-845.8 142.65,-847.77 152.98,-849.71"/>
<polygon fill="black" stroke="black" points="152.11,-853.11 162.59,-851.51 153.4,-846.23 152.11,-853.11"/>
</g>
<!-- addr_0x00695574&#45;&gt;addr_0xBAADF00D -->
<g id="edge9" class="edge" data-name="addr_0x00695574-&gt;addr_0xBAADF00D">

<path fill="none" stroke="black" d="M121.94,-819.63C167.23,-809.19 231.68,-794.27 288.1,-781 296.97,-778.91 306.26,-776.72 315.48,-774.53"/>
<polygon fill="black" stroke="black" points="316.28,-777.93 325.2,-772.22 314.67,-771.12 316.28,-777.93"/>
</g>
<!-- addr_0x00695570 -->
<g id="node15" class="node" pointer-events="visible" data-name="addr_0x00695570">

<polygon fill="none" stroke="black" points="283.76,-589 166,-589 166,-553 283.76,-553 283.76,-589"/>
<text text-anchor="middle" x="224.88" y="-566.8" font-family="Times,serif" font-size="14.00">addr_0x00695570</text>
</g>
<!-- addr_0x00695570&#45;&gt;addr_0xBAADF00D -->
<g id="edge11" class="edge" data-name="addr_0x00695570-&gt;addr_0xBAADF00D">

<path fill="none" stroke="black" d="M278.11,-589.42C281.76,-591.94 285.15,-594.79 288.1,-598 322.27,-635.31 294.2,-665.18 324.1,-706 331.11,-715.57 340.5,-724.06 350.08,-731.2"/>
<polygon fill="black" stroke="black" points="347.82,-733.89 358.02,-736.76 351.83,-728.16 347.82,-733.89"/>
</g>
<!-- addr_0x00000888 -->
<g id="node16" class="node" pointer-events="visible" data-name="value_0x888" data-comment="addr_0x00000888">

<polygon fill="none" stroke="black" points="438.25,-589 349.61,-589 349.61,-553 438.25,-553 438.25,-589"/>
<text text-anchor="middle" x="393.93" y="-566.8" font-family="Times,serif" font-size="14.00">value_0x888</text>
</g>
<!-- addr_0x00695570&#45;&gt;addr_0x00000888 -->
<g id="edge12" class="edge" data-name="addr_0x00695570-&gt;value_0x888" data-comment="addr_0x00695570-&gt;addr_0x00000888">

<path fill="none" stroke="black" d="M283.84,-571C301.46,-571 320.77,-571 338.17,-571"/>
<polygon fill="black" stroke="black" points="337.79,-574.5 347.79,-571 337.79,-567.5 337.79,-574.5"/>
</g>
<!-- addr_0x0019FF14 -->
<g id="node17" class="node" pointer-events="visible" data-name="addr_0x0019FF14">

<polygon fill="none" stroke="black" points="122.78,-373 2.88,-373 2.88,-337 122.78,-337 122.78,-373"/>
<text text-anchor="middle" x="62.83" y="-350.8" font-family="Times,serif" font-size="14.00">addr_0x0019FF14</text>
</g>
<!-- addr_0x00000000 -->
<g id="node18" class="node" pointer-events="visible" data-name="addr_0x00000000">

<polygon fill="none" stroke="black" points="283.76,-427 166,-427 166,-391 283.76,-391 283.76,-427"/>
<text text-anchor="middle" x="224.88" y="-404.8" font-family="Times,serif" font-size="14.00">addr_0x00000000</text>
</g>
<!-- addr_0x0019FF14&#45;&gt;addr_0x00000000 -->
<g id="edge13" class="edge" data-name="addr_0x0019FF14-&gt;addr_0x00000000">

<path fill="none" stroke="black" d="M118.46,-373.43C131.4,-377.8 145.32,-382.49 158.67,-387"/>
<polygon fill="black" stroke="black" points="157.19,-390.19 167.79,-390.07 159.43,-383.56 157.19,-390.19"/>
</g>
<!-- addr_0x00698650 -->
<g id="node33" class="node" pointer-events="visible" data-name="addr_0x00698650">

<polygon fill="none" stroke="black" points="283.76,-319 166,-319 166,-283 283.76,-283 283.76,-319"/>
<text text-anchor="middle" x="224.88" y="-296.8" font-family="Times,serif" font-size="14.00">addr_0x00698650</text>
</g>
<!-- addr_0x0019FF14&#45;&gt;addr_0x00698650 -->
<g id="edge33" class="edge" data-name="addr_0x0019FF14-&gt;addr_0x00698650">

<path fill="none" stroke="black" d="M118.46,-336.57C131.4,-332.2 145.32,-327.51 158.67,-323"/>
<polygon fill="black" stroke="black" points="159.43,-326.44 167.79,-319.93 157.19,-319.81 159.43,-326.44"/>
</g>
<!-- addr_0x00696C30 -->
<g id="node36" class="node" pointer-events="visible" data-name="addr_0x00696C30">

<polygon fill="none" stroke="black" points="285.09,-373 164.67,-373 164.67,-337 285.09,-337 285.09,-373"/>
<text text-anchor="middle" x="224.88" y="-350.8" font-family="Times,serif" font-size="14.00">addr_0x00696C30</text>
</g>
<!-- addr_0x0019FF14&#45;&gt;addr_0x00696C30 -->
<g id="edge38" class="edge" data-name="addr_0x0019FF14-&gt;addr_0x00696C30">

<path fill="none" stroke="black" d="M122.97,-355C132.74,-355 142.96,-355 152.98,-355"/>
<polygon fill="black" stroke="black" points="152.67,-358.5 162.67,-355 152.67,-351.5 152.67,-358.5"/>
</g>
<!-- addr_0x0019FF08 -->
<g id="node19" class="node" pointer-events="visible" data-name="addr_0x0019FF08">

<polygon fill="none" stroke="black" points="122.78,-720 2.88,-720 2.88,-684 122.78,-684 122.78,-720"/>
<text text-anchor="middle" x="62.83" y="-697.8" font-family="Times,serif" font-size="14.00">addr_0x0019FF08</text>
</g>
<!-- addr_0x004030FC -->
<g id="node20" class="node" pointer-events="visible" data-name="addr_0x004030FC">

<polygon fill="none" stroke="black" points="285.38,-751 164.38,-751 164.38,-715 285.38,-715 285.38,-751"/>
<text text-anchor="middle" x="224.88" y="-728.8" font-family="Times,serif" font-size="14.00">addr_0x004030FC</text>
</g>
<!-- addr_0x0019FF08&#45;&gt;addr_0x004030FC -->
<g id="edge14" class="edge" data-name="addr_0x0019FF08-&gt;addr_0x004030FC">

<path fill="none" stroke="black" d="M122.97,-713.46C132.68,-715.33 142.82,-717.3 152.78,-719.23"/>
<polygon fill="black" stroke="black" points="151.94,-722.63 162.43,-721.1 153.27,-715.76 151.94,-722.63"/>
</g>
<!-- addr_0x00698628 -->
<g id="node21" class="node" pointer-events="visible" data-name="addr_0x00698628">

<polygon fill="none" stroke="black" points="283.76,-697 166,-697 166,-661 283.76,-661 283.76,-697"/>
<text text-anchor="middle" x="224.88" y="-674.8" font-family="Times,serif" font-size="14.00">addr_0x00698628</text>
</g>
<!-- addr_0x0019FF08&#45;&gt;addr_0x00698628 -->
<g id="edge15" class="edge" data-name="addr_0x0019FF08-&gt;addr_0x00698628">

<path fill="none" stroke="black" d="M122.97,-693.5C133.17,-692.03 143.86,-690.5 154.31,-689"/>
<polygon fill="black" stroke="black" points="154.62,-692.49 164.02,-687.6 153.62,-685.56 154.62,-692.49"/>
</g>
<!-- addr_0x00698628&#45;&gt;addr_0xBAADF00D -->
<g id="edge18" class="edge" data-name="addr_0x00698628-&gt;addr_0xBAADF00D">

<path fill="none" stroke="black" d="M268.81,-697.39C275.29,-700.24 281.88,-703.17 288.1,-706 306.81,-714.52 327.25,-724.19 345.08,-732.74"/>
<polygon fill="black" stroke="black" points="343.34,-735.79 353.87,-736.97 346.38,-729.48 343.34,-735.79"/>
</g>
<!-- addr_0x00000987 -->
<g id="node24" class="node" pointer-events="visible" data-name="value_0x987" data-comment="addr_0x00000987">

<polygon fill="none" stroke="black" points="438.25,-697 349.61,-697 349.61,-661 438.25,-661 438.25,-697" style=""/>
<text text-anchor="middle" x="393.93" y="-674.8" font-family="Times,serif" font-size="14.00" style="">value_0x987</text>
</g>
<!-- addr_0x00698628&#45;&gt;addr_0x00000987 -->
<g id="edge19" class="edge" data-name="addr_0x00698628-&gt;value_0x987" data-comment="addr_0x00698628-&gt;addr_0x00000987">

<path fill="none" stroke="black" d="M283.84,-679C301.46,-679 320.77,-679 338.17,-679"/>
<polygon fill="black" stroke="black" points="337.79,-682.5 347.79,-679 337.79,-675.5 337.79,-682.5"/>
</g>
<!-- addr_0x0019FF0C -->
<g id="node22" class="node" pointer-events="visible" data-name="addr_0x0019FF0C">

<polygon fill="none" stroke="black" points="123.62,-508 2.04,-508 2.04,-472 123.62,-472 123.62,-508"/>
<text text-anchor="middle" x="62.83" y="-485.8" font-family="Times,serif" font-size="14.00">addr_0x0019FF0C</text>
</g>
<!-- addr_0x0019FF0C&#45;&gt;addr_0x00000000 -->
<g id="edge17" class="edge" data-name="addr_0x0019FF0C-&gt;addr_0x00000000">

<path fill="none" stroke="black" d="M95.15,-471.72C114.15,-460.88 139.03,-447.13 161.66,-436 164.34,-434.68 167.1,-433.36 169.9,-432.05"/>
<polygon fill="black" stroke="black" points="171.12,-435.34 178.75,-427.99 168.2,-428.98 171.12,-435.34"/>
</g>
<!-- addr_0x0019FF2C -->
<g id="node23" class="node" pointer-events="visible" data-name="addr_0x0019FF2C">

<polygon fill="none" stroke="black" points="285.67,-535 164.09,-535 164.09,-499 285.67,-499 285.67,-535"/>
<text text-anchor="middle" x="224.88" y="-512.8" font-family="Times,serif" font-size="14.00">addr_0x0019FF2C</text>
</g>
<!-- addr_0x0019FF0C&#45;&gt;addr_0x0019FF2C -->
<g id="edge16" class="edge" data-name="addr_0x0019FF0C-&gt;addr_0x0019FF2C">

<path fill="none" stroke="black" d="M123.88,-500.13C133.25,-501.71 143.02,-503.36 152.61,-504.98"/>
<polygon fill="black" stroke="black" points="151.82,-508.39 162.27,-506.61 152.99,-501.49 151.82,-508.39"/>
</g>
<!-- addr_0x00698648 -->
<g id="node28" class="node" pointer-events="visible" data-name="addr_0x00698648">

<polygon fill="none" stroke="black" points="283.76,-643 166,-643 166,-607 283.76,-607 283.76,-643"/>
<text text-anchor="middle" x="224.88" y="-620.8" font-family="Times,serif" font-size="14.00">addr_0x00698648</text>
</g>
<!-- addr_0x0019FF0C&#45;&gt;addr_0x00698648 -->
<g id="edge29" class="edge" data-name="addr_0x0019FF0C-&gt;addr_0x00698648">

<path fill="none" stroke="black" d="M76.5,-508.25C93.55,-531.67 125.89,-572.35 161.66,-598 163.01,-598.96 164.39,-599.91 165.81,-600.82"/>
<polygon fill="black" stroke="black" points="163.82,-603.71 174.22,-605.74 167.36,-597.67 163.82,-603.71"/>
</g>
<!-- addr_0x00696C20 -->
<g id="node37" class="node" pointer-events="visible" data-name="addr_0x00696C20">

<polygon fill="none" stroke="black" points="285.09,-481 164.67,-481 164.67,-445 285.09,-445 285.09,-481"/>
<text text-anchor="middle" x="224.88" y="-458.8" font-family="Times,serif" font-size="14.00">addr_0x00696C20</text>
</g>
<!-- addr_0x0019FF0C&#45;&gt;addr_0x00696C20 -->
<g id="edge35" class="edge" data-name="addr_0x0019FF0C-&gt;addr_0x00696C20">

<path fill="none" stroke="black" d="M123.88,-479.87C133.38,-478.27 143.28,-476.6 153,-474.96"/>
<polygon fill="black" stroke="black" points="153.52,-478.42 162.8,-473.3 152.35,-471.52 153.52,-478.42"/>
</g>
<!-- addr_0x0019FF10 -->
<g id="node25" class="node" pointer-events="visible" data-name="addr_0x0019FF10">

<polygon fill="none" stroke="black" points="122.78,-319 2.88,-319 2.88,-283 122.78,-283 122.78,-319"/>
<text text-anchor="middle" x="62.83" y="-296.8" font-family="Times,serif" font-size="14.00">addr_0x0019FF10</text>
</g>
<!-- addr_0x0019FF10&#45;&gt;addr_0x00000000 -->
<g id="edge20" class="edge" data-name="addr_0x0019FF10-&gt;addr_0x00000000">

<path fill="none" stroke="black" d="M113.31,-319.44C117.69,-321.99 121.89,-324.84 125.66,-328 147.77,-346.52 139.53,-363.5 161.66,-382 162.61,-382.79 163.59,-383.57 164.58,-384.32"/>
<polygon fill="black" stroke="black" points="162.55,-387.17 172.83,-389.76 166.41,-381.33 162.55,-387.17"/>
</g>
<!-- addr_0x0019FF10&#45;&gt;addr_0x00698650 -->
<g id="edge32" class="edge" data-name="addr_0x0019FF10-&gt;addr_0x00698650">

<path fill="none" stroke="black" d="M122.97,-301C133.17,-301 143.86,-301 154.31,-301"/>
<polygon fill="black" stroke="black" points="154,-304.5 164,-301 154,-297.5 154,-304.5"/>
</g>
<!-- addr_0x0019FF10&#45;&gt;addr_0x00696C30 -->
<g id="edge34" class="edge" data-name="addr_0x0019FF10-&gt;addr_0x00696C30">

<path fill="none" stroke="black" d="M118.46,-319.43C131.4,-323.8 145.32,-328.49 158.67,-333"/>
<polygon fill="black" stroke="black" points="157.19,-336.19 167.79,-336.07 159.43,-329.56 157.19,-336.19"/>
</g>
<!-- addr_0x0019FF24 -->
<g id="node26" class="node" pointer-events="visible" data-name="addr_0x0019FF24">

<polygon fill="none" stroke="black" points="122.78,-265 2.88,-265 2.88,-229 122.78,-229 122.78,-265"/>
<text text-anchor="middle" x="62.83" y="-242.8" font-family="Times,serif" font-size="14.00">addr_0x0019FF24</text>
</g>
<!-- addr_0x0019FF24&#45;&gt;addr_0x00000000 -->
<g id="edge22" class="edge" data-name="addr_0x0019FF24-&gt;addr_0x00000000">

<path fill="none" stroke="black" d="M115.74,-265.45C119.37,-267.96 122.74,-270.8 125.66,-274 159.79,-311.35 127.49,-344.69 161.66,-382 162.12,-382.5 162.59,-383 163.07,-383.48"/>
<polygon fill="black" stroke="black" points="160.55,-385.93 170.48,-389.62 165.01,-380.54 160.55,-385.93"/>
</g>
<!-- addr_0xFFFFFFFF -->
<g id="node27" class="node" pointer-events="visible" data-name="addr_0xFFFFFFFF">

<polygon fill="none" stroke="black" points="287.04,-265 162.71,-265 162.71,-229 287.04,-229 287.04,-265"/>
<text text-anchor="middle" x="224.88" y="-242.8" font-family="Times,serif" font-size="14.00">addr_0xFFFFFFFF</text>
</g>
<!-- addr_0x0019FF24&#45;&gt;addr_0xFFFFFFFF -->
<g id="edge21" class="edge" data-name="addr_0x0019FF24-&gt;addr_0xFFFFFFFF">

<path fill="none" stroke="black" d="M122.97,-247C132.09,-247 141.59,-247 150.97,-247"/>
<polygon fill="black" stroke="black" points="150.79,-250.5 160.79,-247 150.79,-243.5 150.79,-250.5"/>
</g>
<!-- addr_0x00698648&#45;&gt;addr_0xBAADF00D -->
<g id="edge23" class="edge" data-name="addr_0x00698648-&gt;addr_0xBAADF00D">

<path fill="none" stroke="black" d="M275.67,-643.41C280.08,-645.97 284.3,-648.83 288.1,-652 310.23,-670.5 304.11,-685.2 324.1,-706 332.87,-715.13 343.49,-723.76 353.73,-731.19"/>
<polygon fill="black" stroke="black" points="351.53,-733.92 361.73,-736.79 355.55,-728.19 351.53,-733.92"/>
</g>
<!-- addr_0x00698648&#45;&gt;addr_0x00000888 -->
<g id="edge24" class="edge" data-name="addr_0x00698648-&gt;value_0x888" data-comment="addr_0x00698648-&gt;addr_0x00000888">

<path fill="none" stroke="black" d="M282.9,-606.57C300.9,-600.75 320.74,-594.34 338.55,-588.58"/>
<polygon fill="black" stroke="black" points="339.47,-591.96 347.91,-585.55 337.32,-585.3 339.47,-591.96"/>
</g>
<!-- addr_0x0069864C -->
<g id="node29" class="node" pointer-events="visible" data-name="addr_0x0069864C">

<polygon fill="none" stroke="black" points="123.05,-797 2.62,-797 2.62,-761 123.05,-761 123.05,-797"/>
<text text-anchor="middle" x="62.83" y="-774.8" font-family="Times,serif" font-size="14.00">addr_0x0069864C</text>
</g>
<!-- addr_0x0069864C&#45;&gt;addr_0x00698FB8 -->
<g id="edge26" class="edge" data-name="addr_0x0069864C-&gt;addr_0x00698FB8">

<path fill="none" stroke="black" d="M107.7,-797.41C113.78,-800.18 119.91,-803.09 125.66,-806 145.55,-816.07 167.03,-828.36 184.81,-838.95"/>
<polygon fill="black" stroke="black" points="182.61,-841.71 192.98,-843.86 186.21,-835.71 182.61,-841.71"/>
</g>
<!-- addr_0x0069864C&#45;&gt;addr_0xBAADF00D -->
<g id="edge25" class="edge" data-name="addr_0x0069864C-&gt;addr_0xBAADF00D">

<path fill="none" stroke="black" d="M123.43,-774.83C177.17,-771.08 256.56,-765.53 315.26,-761.43"/>
<polygon fill="black" stroke="black" points="315.47,-764.92 325.2,-760.73 314.98,-757.94 315.47,-764.92"/>
</g>
<!-- addr_0x0019FEDC -->
<g id="node30" class="node" pointer-events="visible" data-name="addr_0x0019FEDC">

<polygon fill="none" stroke="black" points="125.49,-427 0.17,-427 0.17,-391 125.49,-391 125.49,-427"/>
<text text-anchor="middle" x="62.83" y="-404.8" font-family="Times,serif" font-size="14.00">addr_0x0019FEDC</text>
</g>
<!-- addr_0x0019FEDC&#45;&gt;addr_0x00000000 -->
<g id="edge27" class="edge" data-name="addr_0x0019FEDC-&gt;addr_0x00000000">

<path fill="none" stroke="black" d="M125.71,-409C135.03,-409 144.69,-409 154.16,-409"/>
<polygon fill="black" stroke="black" points="154.06,-412.5 164.06,-409 154.06,-405.5 154.06,-412.5"/>
</g>
<!-- addr_0x0019FED8 -->
<g id="node31" class="node" pointer-events="visible" data-name="addr_0x0019FED8">

<polygon fill="none" stroke="black" points="124.66,-1062 1.01,-1062 1.01,-1026 124.66,-1026 124.66,-1062"/>
<text text-anchor="middle" x="62.83" y="-1039.8" font-family="Times,serif" font-size="14.00">addr_0x0019FED8</text>
</g>
<!-- addr_0x00000001 -->
<g id="node32" class="node" pointer-events="visible" data-name="addr_0x00000001">

<polygon fill="none" stroke="black" points="283.76,-1062 166,-1062 166,-1026 283.76,-1026 283.76,-1062"/>
<text text-anchor="middle" x="224.88" y="-1039.8" font-family="Times,serif" font-size="14.00">addr_0x00000001</text>
</g>
<!-- addr_0x0019FED8&#45;&gt;addr_0x00000001 -->
<g id="edge28" class="edge" data-name="addr_0x0019FED8-&gt;addr_0x00000001">

<path fill="none" stroke="black" d="M124.8,-1044C134.45,-1044 144.49,-1044 154.32,-1044"/>
<polygon fill="black" stroke="black" points="154.21,-1047.5 164.21,-1044 154.21,-1040.5 154.21,-1047.5"/>
</g>
<!-- addr_0xABABABAB -->
<g id="node34" class="node" pointer-events="visible" data-name="addr_0xABABABAB">

<polygon fill="none" stroke="black" points="463.6,-319 324.26,-319 324.26,-283 463.6,-283 463.6,-319"/>
<text text-anchor="middle" x="393.93" y="-296.8" font-family="Times,serif" font-size="14.00">addr_0xABABABAB</text>
</g>
<!-- addr_0x00698650&#45;&gt;addr_0xABABABAB -->
<g id="edge30" class="edge" data-name="addr_0x00698650-&gt;addr_0xABABABAB">

<path fill="none" stroke="black" d="M283.84,-301C293.12,-301 302.86,-301 312.55,-301"/>
<polygon fill="black" stroke="black" points="312.35,-304.5 322.35,-301 312.35,-297.5 312.35,-304.5"/>
</g>
<!-- addr_0x0019FEE0 -->
<g id="node35" class="node" pointer-events="visible" data-name="addr_0x0019FEE0">

<polygon fill="none" stroke="black" points="123.6,-643 2.07,-643 2.07,-607 123.6,-607 123.6,-643"/>
<text text-anchor="middle" x="62.83" y="-620.8" font-family="Times,serif" font-size="14.00">addr_0x0019FEE0</text>
</g>
<!-- addr_0x0019FEE0&#45;&gt;addr_0x00698648 -->
<g id="edge31" class="edge" data-name="addr_0x0019FEE0-&gt;addr_0x00698648">

<path fill="none" stroke="black" d="M123.88,-625C133.81,-625 144.17,-625 154.3,-625"/>
<polygon fill="black" stroke="black" points="154.1,-628.5 164.1,-625 154.1,-621.5 154.1,-628.5"/>
</g>
<!-- addr_0x00696C20&#45;&gt;addr_0x00000888 -->
<g id="edge37" class="edge" data-name="addr_0x00696C20-&gt;value_0x888" data-comment="addr_0x00696C20-&gt;addr_0x00000888">

<path fill="none" stroke="black" d="M272.06,-481.49C277.57,-484.15 283.03,-487.01 288.1,-490 315.23,-506.03 343.35,-528.1 363.63,-545.16"/>
<polygon fill="black" stroke="black" points="361.33,-547.8 371.21,-551.62 365.87,-542.47 361.33,-547.8"/>
</g>
<!-- addr_0x00696C24 -->
<g id="node38" class="node" pointer-events="visible" data-name="addr_0x00696C24">

<polygon fill="none" stroke="black" points="123.05,-905 2.62,-905 2.62,-869 123.05,-869 123.05,-905"/>
<text text-anchor="middle" x="62.83" y="-882.8" font-family="Times,serif" font-size="14.00">addr_0x00696C24</text>
</g>
<!-- addr_0x00696C24&#45;&gt;addr_0x00698FB8 -->
<g id="edge36" class="edge" data-name="addr_0x00696C24-&gt;addr_0x00698FB8">

<path fill="none" stroke="black" d="M123.43,-878.06C132.95,-876.64 142.88,-875.15 152.63,-873.68"/>
<polygon fill="black" stroke="black" points="153.1,-877.15 162.47,-872.21 152.06,-870.23 153.1,-877.15"/>
</g>
</g>
</svg>